<?xml version="1.0" encoding="UTF-8" standalone="no"?>
<svg width="301px" height="130px" viewBox="0 0 301 130" version="1.1" xmlns="http://www.w3.org/2000/svg" xmlns:xlink="http://www.w3.org/1999/xlink">
    <!-- Generator: Sketch 40.2 (33826) - http://www.bohemiancoding.com/sketch -->
    <title>Page 1 Copy 9</title>
    <desc>Created with Sketch.</desc>
    <defs>
        <rect id="path-1" x="0" y="0" width="512" height="276"></rect>
        <mask id="mask-2" maskContentUnits="userSpaceOnUse" maskUnits="objectBoundingBox" x="0" y="0" width="512" height="276" fill="white">
            <use xlink:href="#path-1"></use>
        </mask>
        <path d="M378.799887,54.7375907 C366.429645,42.6448585 349.913207,36 332.312379,36 C314.706996,36 298.208783,42.6448585 285.820315,54.7375907 L257.630742,82.2045228 L266.74326,91.1659792 L294.932833,63.6262267 C304.901927,53.9365666 318.142415,48.5842697 332.221254,48.5842697 C346.318319,48.5842697 359.540581,53.9547717 369.509675,63.6262267 C390.062959,83.7155454 390.062959,116.37548 369.509675,136.391978 C359.540581,146.081638 346.300093,151.433935 332.221254,151.433935 C318.12419,151.433935 304.901927,146.063433 294.932833,136.391978 L211.179685,54.7375907 C198.718317,42.6448585 182.201879,36 164.687621,36 C147.086793,36 130.588581,42.6448585 118.200113,54.7375907 C105.424364,67.198976 99.0137076,83.62452 99.0000388,100 C98.9818137,116.407339 105.387914,132.764614 118.200113,145.262409 C130.588581,157.355142 147.086793,164 164.687621,164 C182.293004,164 198.791217,157.355142 211.179685,145.262409 L239.282689,117.813682 L230.170171,108.925046 L201.976042,136.391978 C192.011504,146.081638 178.76646,151.433935 164.687621,151.433935 C150.595113,151.433935 137.368293,146.063433 127.403756,136.391978 C106.845916,116.30266 106.845916,83.6427251 127.403756,63.6262267 C137.368293,53.9365666 150.613338,48.5842697 164.687621,48.5842697 C178.784685,48.5842697 192.025173,53.9547717 201.976042,63.6262267 L285.751971,145.280614 C298.208783,157.355142 314.725221,164 332.239479,164 C349.840307,164 366.338519,157.355142 378.726987,145.262409 C391.575636,132.819229 397.986292,116.393685 397.999961,100 C398.018186,83.5926611 391.612086,67.2171811 378.799887,54.7375907 L378.799887,54.7375907 Z" id="path-3"></path>
        <mask id="mask-4" maskContentUnits="userSpaceOnUse" maskUnits="objectBoundingBox" x="0" y="0" width="299" height="128" fill="white">
            <use xlink:href="#path-3"></use>
        </mask>
    </defs>
    <g id="Page-1" stroke="none" stroke-width="1" fill="none" fill-rule="evenodd">
        <g id="D---Welcome" transform="translate(-862.000000, -2998.000000)">
            <g id="Group-3" transform="translate(764.000000, 2963.000000)">
                <use id="Rectangle-14" stroke-opacity="0.87" stroke="#000000" mask="url(#mask-2)" stroke-width="4" fill="#FFFFFF" xlink:href="#path-1"></use>
                <path d="M188.153712,75.527 L188.153712,75.527 C188.137712,75.066 187.840712,74.66 187.403712,74.507 L178.262712,71.582 L170.762712,66.843 L170.688712,66.965 C169.270712,65.8 167.305712,65.695 164.715712,65.695 L164.590712,65.695 C162.160712,65.695 160.156712,65.836 158.731712,66.968 L158.649712,66.832 L151.051712,71.582 L141.938712,74.507 C141.500712,74.66 141.203712,75.066 141.188712,75.527 L139.000712,126.347 C138.989712,126.609 139.106712,126.859 139.317712,127.015 C139.539712,127.179 139.821712,127.242 140.094712,127.195 L143.707712,127.195 L154.344712,132.527 C154.762712,132.761 155.231712,132.894 155.707712,132.925 C156.551712,132.937 157.364712,132.605 157.957712,132.004 L165.344712,125.418 L171.344712,131.988 C171.938712,132.633 172.770712,133 173.645712,133 C174.125712,132.941 174.590712,132.781 175.004712,132.527 L185.574712,127.195 L189.188712,127.195 C189.473712,127.25 189.766712,127.183 189.996712,127.007 C190.207712,126.816 190.324712,126.543 190.313712,126.257 L188.153712,75.527 Z M172.875712,72.527 L176.387712,75.07 L170.844712,86.742 C172.403712,80.468 173.094712,75.707 172.867712,72.504 L172.875712,72.527 Z M164.664712,67.945 C167.664712,67.945 168.910712,68.086 169.645712,69.191 C168.055712,68.578 166.375712,68.246 164.672712,68.203 C162.969712,68.246 161.289712,68.582 159.699712,69.191 C160.434712,68.199 161.731712,67.945 164.664712,67.945 L164.664712,67.945 Z M156.489712,72.511 C156.367712,76.195 157.606712,81.445 159.153712,86.476 L152.973712,75.078 L156.489712,72.511 Z M156.391712,130.398 L156.317712,130.472 C156.059712,130.754 155.641712,130.836 155.297712,130.668 L148.457712,127.324 C148.758712,127.121 148.942712,126.785 148.953712,126.425 L149.188712,117.425 L157.004712,120.605 L157.852712,118.519 L149.242712,115.039 L149.992712,86.215 L147.742712,85.996 L146.731712,124.945 L141.293712,124.945 L143.371712,76.246 L150.617712,73.996 C150.309712,74.332 150.215712,74.812 150.371712,75.242 L164.094712,100.886 L164.094712,113.754 L164.184712,123.297 L156.391712,130.398 Z M158.754712,72.039 L158.754712,72.039 C160.594712,71.101 162.610712,70.562 164.672712,70.449 C166.731712,70.562 168.746712,71.101 170.582712,72.039 C171.293712,77.695 167.739712,90.363 165.446712,97.433 C162.594712,90.332 158.215712,77.695 158.754712,72.039 L158.754712,72.039 Z M182.574712,124.945 L181.571712,85.996 L179.321712,86.136 L180.071712,116.175 L172.164712,119.425 L173.012712,121.519 L180.153712,118.625 L180.356712,126.445 C180.367712,126.808 180.551712,127.14 180.852712,127.343 L174.012712,130.687 C173.617712,130.851 173.164712,130.777 172.840712,130.492 L166.344712,123.574 L166.344712,113.785 L166.582712,100.718 L178.742712,75.168 C178.918712,74.836 178.918712,74.441 178.742712,74.109 L185.942712,76.246 L188.020712,124.945 L182.574712,124.945 Z M162.489712,106.441 L162.489712,106.441 C162.489712,107.25 161.512712,107.656 160.938712,107.082 C160.367712,106.511 160.774712,105.535 161.582712,105.535 C162.082712,105.535 162.489712,105.941 162.489712,106.441 L162.489712,106.441 Z M162.489712,113.027 L162.489712,113.027 C162.489712,113.836 161.512712,114.242 160.938712,113.668 C160.367712,113.097 160.774712,112.121 161.582712,112.121 C162.082712,112.121 162.489712,112.527 162.489712,113.027 L162.489712,113.027 Z" id="Page-1-Copy-8" fill="#000000"></path>
                <use id="Page-1-Copy-9" stroke="#FFFFFF" mask="url(#mask-4)" stroke-width="8" fill="#000000" xlink:href="#path-3"></use>
                <path d="M356.337812,94.3684414 C354.112511,94.3684414 352.028717,94.8418032 350.13527,95.7421924 L348.241823,92.4311644 L367.74483,92.4311644 L367.74483,76 L352.170225,76 L352.170225,90.0631031 L346.868072,90.0631031 L345.777336,88.169656 L347.576862,84.9512966 L349.137203,84.9512966 C349.797154,84.9512966 350.320607,84.4328528 350.320607,83.7678921 C350.320607,83.1066884 349.802163,82.5832354 349.137203,82.5832354 L340.807037,82.5832354 C340.145833,82.5832354 339.62238,83.1016792 339.62238,83.7678921 C339.62238,84.4278436 340.142076,84.9512966 340.807037,84.9512966 L344.833117,84.9512966 L343.697299,86.9862515 L317.189038,86.9862515 L319.272832,81.4924996 L319.272832,81.3998309 C319.272832,81.350992 319.322923,81.3071622 319.322923,81.2583233 L319.322923,81.1168156 L319.322923,81.0228946 L319.322923,81.0228946 L319.322923,80.881387 L319.322923,80.7887183 C319.322923,80.7398794 319.322923,80.6960496 319.272832,80.6960496 C319.272832,80.6472107 319.272832,80.6021286 319.223993,80.6021286 C319.223993,80.5532897 319.175154,80.5532897 319.175154,80.5094599 C319.175154,80.460621 319.126315,80.4167912 319.126315,80.4167912 C319.126315,80.3679523 319.077476,80.3679523 319.033647,80.3241225 C318.984808,80.2752835 318.984808,80.2752835 318.940978,80.2302015 C318.892139,80.1813625 318.892139,80.1813625 318.848309,80.1813625 C318.79947,80.1325236 318.79947,80.1325236 318.754388,80.0886938 C318.705549,80.0886938 318.705549,80.0398549 318.661719,80.0398549 C318.612881,80.0398549 318.569051,79.991016 318.520212,79.991016 L318.520212,79.991016 L318.427543,79.991016 C318.378704,79.991016 318.333622,79.9421771 318.284783,79.9421771 L318.143276,79.9421771 L318.050607,79.9421771 L310.463043,79.9421771 C307.483869,79.8833199 305.024391,82.3440499 305.024391,85.3282329 C305.024391,88.3124159 307.483869,90.7718936 310.468052,90.7718936 C311.129256,90.7718936 311.652709,90.2534497 311.652709,89.5884891 C311.652709,88.9285376 311.133013,88.4050846 310.468052,88.4050846 C308.766204,88.4050846 307.3912,87.0300813 307.3912,85.3282329 C307.3912,83.6251322 308.766204,82.2513812 310.468052,82.2513812 L316.572917,82.2513812 L311.745378,94.9407333 C310.468052,94.6076269 309.18697,94.4222894 307.816976,94.4222894 C299.628317,94.4222894 293,101.050607 293,109.239265 C293,117.427923 299.628317,124.056241 307.816976,124.056241 C316.005634,124.056241 322.633951,117.427923 322.633951,109.239265 C322.633951,103.275908 319.082486,98.1152628 313.970679,95.7472016 L316.054473,90.3523798 L331.67416,109.943046 L331.67416,109.943046 C331.67416,109.943046 331.67416,109.943046 331.722999,109.991885 L331.722999,109.991885 C331.771838,110.040724 331.771838,110.040724 331.815667,110.084554 L331.864506,110.133393 L331.913345,110.182232 C331.962184,110.182232 331.962184,110.232323 332.006014,110.232323 C332.006014,110.232323 332.006014,110.232323 332.054853,110.281162 L332.104944,110.281162 C332.104944,110.281162 332.153783,110.281162 332.153783,110.330001 C332.202622,110.330001 332.246452,110.37884 332.295291,110.37884 L332.34413,110.37884 L332.392968,110.37884 C332.485637,110.37884 332.534476,110.427679 332.628397,110.427679 L332.628397,110.427679 L332.628397,110.427679 L332.628397,110.427679 L341.574685,110.427679 C342.190806,118.049054 348.579938,124.059998 356.342821,124.059998 C364.53148,124.059998 371.159797,117.432932 371.159797,109.243022 C371.159797,101.054364 364.477631,94.3684414 356.337812,94.3684414 L356.337812,94.3684414 Z M354.538286,78.366809 L357.756645,78.366809 L357.756645,83.8117219 L361.591126,83.8117219 L361.591126,78.366809 L365.334191,78.366809 L365.334191,90.0631031 L354.493204,90.0631031 L354.493204,78.366809 L354.538286,78.366809 Z M320.217051,109.185417 C320.217051,116.047911 314.630631,121.634331 307.768137,121.634331 C300.905643,121.634331 295.319222,116.047911 295.319222,109.185417 C295.319222,102.321671 300.905643,96.7352504 307.768137,96.7352504 C308.858873,96.7352504 309.85193,96.876758 310.844988,97.1121866 L306.633571,108.093429 C306.398143,108.710803 306.72624,109.370754 307.293523,109.60994 C307.43503,109.658779 307.57779,109.703861 307.719298,109.703861 C308.193912,109.703861 308.668526,109.419593 308.810034,108.944979 L313.021451,97.963737 C317.282959,99.9536097 320.217051,104.215118 320.217051,109.185417 L320.217051,109.185417 Z M348.051476,96.9268492 C344.407342,99.3863269 341.946612,103.412407 341.564666,108.049599 L334.609504,108.049599 L344.456181,90.6303859 L348.051476,96.9268492 Z M349.191051,99.010643 L354.302857,108.049599 L343.937737,108.049599 C344.264582,104.307787 346.300789,101.045598 349.191051,99.010643 L349.191051,99.010643 Z M332.431789,107.101623 L318.276017,89.3493036 L342.416217,89.3493036 L332.431789,107.101623 Z M356.337812,121.68317 C349.851002,121.68317 344.548849,116.712871 343.937737,110.41766 L356.337812,110.41766 L356.337812,110.41766 L356.337812,110.41766 L356.337812,110.41766 C356.430481,110.41766 356.528159,110.41766 356.62208,110.368822 L356.714748,110.368822 C356.763587,110.368822 356.856256,110.319983 356.905095,110.276153 L356.953934,110.276153 C356.953934,110.276153 356.953934,110.276153 357.002773,110.227314 C357.051612,110.227314 357.051612,110.178475 357.096694,110.133393 C357.145533,110.133393 357.145533,110.084554 357.189363,110.084554 C357.238201,110.035715 357.238201,110.035715 357.282031,109.991885 C357.33087,109.943046 357.33087,109.943046 357.3747,109.899217 C357.3747,109.850378 357.423539,109.850378 357.423539,109.806548 C357.423539,109.757709 357.472378,109.757709 357.472378,109.712627 C357.472378,109.663788 357.521217,109.619958 357.521217,109.619958 C357.521217,109.571119 357.571308,109.571119 357.571308,109.527289 L357.571308,109.434621 L357.571308,109.293113 L357.571308,109.243022 L357.571308,109.194183 L357.571308,109.052675 C357.571308,109.003836 357.571308,108.960007 357.521217,108.960007 C357.521217,108.911168 357.521217,108.867338 357.472378,108.867338 C357.472378,108.818499 357.423539,108.773417 357.423539,108.724578 C357.423539,108.724578 357.423539,108.675739 357.3747,108.675739 L351.269835,97.8848433 C352.830176,97.1760529 354.538286,96.7941075 356.332803,96.7941075 C363.196549,96.7941075 368.78297,102.380528 368.78297,109.243022 C368.78297,116.106768 363.201558,121.68317 356.337812,121.68317 L356.337812,121.68317 Z" id="Fill-1" fill="#000000" transform="translate(332.079898, 100.029999) scale(-1, 1) translate(-332.079898, -100.029999) "></path>
            </g>
        </g>
    </g>
</svg>