<svg xmlns="http://www.w3.org/2000/svg" viewBox="0 0 42.5 42.5">
  <defs>
    <style>
      .a {
        fill: none;
        stroke: #000;
        stroke-miterlimit: 10;
        stroke-width: 2.5px;
      }
    </style>
  </defs>
  <title>LOGO-EON-dark</title>
  <g>
    <path d="M5.35,14.52h6.73v2H7.53v1.85h4.3v2H7.53v2h4.8v2h-7Z" transform="translate(1.25 1.25)"/>
    <path d="M13.55,19.48a5.6,5.6,0,0,1,.4-2.16,4.73,4.73,0,0,1,1.11-1.65,4.91,4.91,0,0,1,1.69-1,6.48,6.48,0,0,1,4.28,0,4.91,4.91,0,0,1,1.69,1,4.74,4.74,0,0,1,1.11,1.65,6,6,0,0,1,0,4.31,4.74,4.74,0,0,1-1.11,1.64,4.9,4.9,0,0,1-1.69,1,6.48,6.48,0,0,1-4.28,0,4.89,4.89,0,0,1-1.69-1A4.73,4.73,0,0,1,14,21.63,5.6,5.6,0,0,1,13.55,19.48Zm2.27,0A3.64,3.64,0,0,0,16,20.76a2.93,2.93,0,0,0,.62,1,2.86,2.86,0,0,0,1,.67,3.5,3.5,0,0,0,2.53,0,2.87,2.87,0,0,0,1-.67,2.94,2.94,0,0,0,.62-1,3.86,3.86,0,0,0,0-2.56,2.92,2.92,0,0,0-.62-1,2.86,2.86,0,0,0-1-.67,3.49,3.49,0,0,0-2.53,0,2.85,2.85,0,0,0-1,.67,2.92,2.92,0,0,0-.62,1A3.66,3.66,0,0,0,15.82,19.48Z" transform="translate(1.25 1.25)"/>
    <path d="M25.73,14.52h3l4.21,6.89h0V14.52h2.18v9.91H32.27l-4.33-7.06h0v7.06H25.73Z" transform="translate(1.25 1.25)"/>
  </g>
  <circle class="a" cx="21.25" cy="21.25" r="20"/>
</svg>
