<svg xmlns="http://www.w3.org/2000/svg" viewBox="0 0 442 442">
  <defs>
    <style>
      .a {
        fill: #fff;
      }
    </style>
  </defs>
  <title>sustainability-circle</title>
  <circle class="a" cx="221" cy="221" r="221"/>
  <g>
    <path d="M237.64,286.09h5.52a10.94,10.94,0,0,1,2.18.21,5,5,0,0,1,1.8.72,3.67,3.67,0,0,1,1.22,1.39,4.75,4.75,0,0,1,.45,2.19,5.07,5.07,0,0,1-.42,2.18,3.58,3.58,0,0,1-1.16,1.41,4.68,4.68,0,0,1-1.74.75,10.22,10.22,0,0,1-2.18.22h-2.39V301h-3.28Zm3.28,6.3h2.18a4.21,4.21,0,0,0,.85-.08,2.26,2.26,0,0,0,.74-.28,1.51,1.51,0,0,0,.52-.55,1.73,1.73,0,0,0,.2-.87,1.48,1.48,0,0,0-.26-.91,1.75,1.75,0,0,0-.67-.54,2.87,2.87,0,0,0-.91-.24,9.43,9.43,0,0,0-1-.05h-1.68Z" transform="translate(-162.83 -162.91)"/>
    <path d="M250.87,286.09h5.75a10.16,10.16,0,0,1,2.15.22,5.12,5.12,0,0,1,1.79.73,3.67,3.67,0,0,1,1.22,1.39,4.7,4.7,0,0,1,.45,2.17,4.37,4.37,0,0,1-.82,2.68,3.69,3.69,0,0,1-2.39,1.4L262.8,301h-3.93L255.77,295h-1.62V301h-3.28Zm3.28,6.15h1.93l.93,0a2.93,2.93,0,0,0,.89-.19,1.54,1.54,0,0,0,.66-.49,1.5,1.5,0,0,0,.26-.94,1.57,1.57,0,0,0-.23-.9,1.55,1.55,0,0,0-.59-.51,2.62,2.62,0,0,0-.82-.24,6.68,6.68,0,0,0-.9-.06h-2.14Z" transform="translate(-162.83 -162.91)"/>
    <path d="M263.68,293.52a8.4,8.4,0,0,1,.6-3.23,7.1,7.1,0,0,1,1.67-2.47,7.36,7.36,0,0,1,2.54-1.56,9.73,9.73,0,0,1,6.43,0,7.37,7.37,0,0,1,2.54,1.56,7.1,7.1,0,0,1,1.67,2.47,9,9,0,0,1,0,6.47,7.09,7.09,0,0,1-1.67,2.47,7.36,7.36,0,0,1-2.54,1.56,9.73,9.73,0,0,1-6.43,0,7.35,7.35,0,0,1-2.54-1.56,7.09,7.09,0,0,1-1.67-2.47A8.4,8.4,0,0,1,263.68,293.52Zm3.4,0a5.44,5.44,0,0,0,.33,1.92,4.39,4.39,0,0,0,.93,1.51,4.26,4.26,0,0,0,1.46,1,5.24,5.24,0,0,0,3.8,0,4.26,4.26,0,0,0,1.46-1,4.39,4.39,0,0,0,.93-1.51,5.8,5.8,0,0,0,0-3.83,4.38,4.38,0,0,0-.93-1.52,4.28,4.28,0,0,0-1.46-1,5.24,5.24,0,0,0-3.8,0,4.27,4.27,0,0,0-1.46,1,4.38,4.38,0,0,0-.93,1.52A5.48,5.48,0,0,0,267.09,293.52Z" transform="translate(-162.83 -162.91)"/>
    <path d="M282,286.09h4.91a14,14,0,0,1,3.39.4,7.77,7.77,0,0,1,2.8,1.29,6.33,6.33,0,0,1,1.9,2.32,7.78,7.78,0,0,1,.7,3.46,7.08,7.08,0,0,1-.68,3.18,6.85,6.85,0,0,1-1.84,2.31,8.12,8.12,0,0,1-2.67,1.42,10.35,10.35,0,0,1-3.17.48H282Zm3.28,11.84h1.7a9.14,9.14,0,0,0,2.11-.23,4.51,4.51,0,0,0,1.69-.77,3.68,3.68,0,0,0,1.12-1.41,5,5,0,0,0,.41-2.13,4.16,4.16,0,0,0-.41-1.9,3.8,3.8,0,0,0-1.1-1.33,4.84,4.84,0,0,0-1.63-.79,7.24,7.24,0,0,0-2-.26h-1.93Z" transform="translate(-162.83 -162.91)"/>
    <path d="M310.43,295.22a7.17,7.17,0,0,1-.4,2.44,5.36,5.36,0,0,1-1.19,1.93,5.43,5.43,0,0,1-2,1.28,8.24,8.24,0,0,1-5.44,0,5.42,5.42,0,0,1-2-1.28,5.35,5.35,0,0,1-1.19-1.93,7.17,7.17,0,0,1-.4-2.44v-9.14h3.28v9a3.62,3.62,0,0,0,.22,1.28,3.05,3.05,0,0,0,.62,1,2.8,2.8,0,0,0,1,.67,3,3,0,0,0,1.21.24,2.92,2.92,0,0,0,1.2-.24,2.83,2.83,0,0,0,.95-.67,3.07,3.07,0,0,0,.62-1,3.62,3.62,0,0,0,.22-1.28v-9h3.28Z" transform="translate(-162.83 -162.91)"/>
    <path d="M323.18,289.95A3.22,3.22,0,0,0,322,289a4,4,0,0,0-1.63-.31,4.07,4.07,0,0,0-3.08,1.35,4.65,4.65,0,0,0-.9,1.52,5.81,5.81,0,0,0,0,3.83,4.77,4.77,0,0,0,.89,1.51,4,4,0,0,0,1.33,1,3.85,3.85,0,0,0,1.65.36,3.69,3.69,0,0,0,1.79-.42,3.55,3.55,0,0,0,1.28-1.18l2.73,2a5.68,5.68,0,0,1-2.39,2,7.41,7.41,0,0,1-3,.63,9.16,9.16,0,0,1-3.21-.55,7.35,7.35,0,0,1-2.54-1.56,7.09,7.09,0,0,1-1.67-2.47,9,9,0,0,1,0-6.47,7.1,7.1,0,0,1,1.67-2.47,7.36,7.36,0,0,1,2.54-1.56,9.16,9.16,0,0,1,3.21-.55,7.85,7.85,0,0,1,1.31.12,7.1,7.1,0,0,1,1.34.37,6,6,0,0,1,1.27.67,5.08,5.08,0,0,1,1.09,1Z" transform="translate(-162.83 -162.91)"/>
    <path d="M330.72,289h-4.24v-2.9h11.76V289H334v12h-3.28Z" transform="translate(-162.83 -162.91)"/>
    <path d="M347.24,289.72a2.33,2.33,0,0,0-1.08-.75,3.88,3.88,0,0,0-1.29-.24,3.4,3.4,0,0,0-.73.08,2.83,2.83,0,0,0-.71.26,1.55,1.55,0,0,0-.55.47,1.2,1.2,0,0,0-.21.71,1.18,1.18,0,0,0,.5,1,4.77,4.77,0,0,0,1.27.61q.77.25,1.65.5a6.81,6.81,0,0,1,1.65.71,3.91,3.91,0,0,1,1.27,1.24,3.78,3.78,0,0,1,.5,2.08,4.78,4.78,0,0,1-.46,2.16,4.39,4.39,0,0,1-1.25,1.53,5.31,5.31,0,0,1-1.83.9,8.38,8.38,0,0,1-4.88-.15,6.73,6.73,0,0,1-2.31-1.43l2.33-2.56a3.39,3.39,0,0,0,1.27,1,3.57,3.57,0,0,0,2.39.27,2.64,2.64,0,0,0,.73-.28,1.58,1.58,0,0,0,.52-.48,1.2,1.2,0,0,0,.2-.69,1.26,1.26,0,0,0-.51-1.06,4.75,4.75,0,0,0-1.29-.66q-.78-.27-1.68-.55a7.54,7.54,0,0,1-1.68-.74,4,4,0,0,1-1.29-1.22,3.48,3.48,0,0,1-.51-2,4.47,4.47,0,0,1,.47-2.1,4.56,4.56,0,0,1,1.26-1.51,5.48,5.48,0,0,1,1.82-.91,7.44,7.44,0,0,1,2.12-.3,8.35,8.35,0,0,1,2.44.36,5.62,5.62,0,0,1,2.12,1.2Z" transform="translate(-162.83 -162.91)"/>
    <path d="M357.36,293.52a8.4,8.4,0,0,1,.6-3.23,7.1,7.1,0,0,1,1.67-2.47,7.36,7.36,0,0,1,2.54-1.56,9.73,9.73,0,0,1,6.43,0,7.37,7.37,0,0,1,2.54,1.56,7.1,7.1,0,0,1,1.67,2.47,9,9,0,0,1,0,6.47,7.09,7.09,0,0,1-1.67,2.47,7.36,7.36,0,0,1-2.54,1.56,9.73,9.73,0,0,1-6.43,0,7.35,7.35,0,0,1-2.54-1.56,7.09,7.09,0,0,1-1.67-2.47A8.4,8.4,0,0,1,357.36,293.52Zm3.4,0a5.44,5.44,0,0,0,.33,1.92A4.39,4.39,0,0,0,362,297a4.26,4.26,0,0,0,1.46,1,5.24,5.24,0,0,0,3.8,0,4.26,4.26,0,0,0,1.46-1,4.39,4.39,0,0,0,.93-1.51,5.8,5.8,0,0,0,0-3.83,4.38,4.38,0,0,0-.93-1.52,4.28,4.28,0,0,0-1.46-1,5.24,5.24,0,0,0-3.8,0,4.27,4.27,0,0,0-1.46,1,4.38,4.38,0,0,0-.93,1.52A5.48,5.48,0,0,0,360.77,293.52Z" transform="translate(-162.83 -162.91)"/>
    <path d="M375.63,286.09h4.45l6.32,10.33h0V286.09h3.28V301h-4.28L379,290.37h0V301h-3.28Z" transform="translate(-162.83 -162.91)"/>
    <path d="M399.09,286.09h10.1v3h-6.83v2.77h6.45v3h-6.45v3h7.2v3H399.09Z" transform="translate(-162.83 -162.91)"/>
    <path d="M411.39,293.52a8.39,8.39,0,0,1,.6-3.23,7.1,7.1,0,0,1,1.67-2.47,7.36,7.36,0,0,1,2.54-1.56,9.73,9.73,0,0,1,6.43,0,7.37,7.37,0,0,1,2.54,1.56,7.09,7.09,0,0,1,1.67,2.47,9,9,0,0,1,0,6.47,7.09,7.09,0,0,1-1.67,2.47,7.35,7.35,0,0,1-2.54,1.56,9.73,9.73,0,0,1-6.43,0,7.34,7.34,0,0,1-2.54-1.56,7.09,7.09,0,0,1-1.67-2.47A8.39,8.39,0,0,1,411.39,293.52Zm3.4,0a5.45,5.45,0,0,0,.33,1.92,4.39,4.39,0,0,0,.93,1.51,4.26,4.26,0,0,0,1.46,1,5.24,5.24,0,0,0,3.8,0,4.27,4.27,0,0,0,1.46-1,4.39,4.39,0,0,0,.93-1.51,5.79,5.79,0,0,0,0-3.83,4.38,4.38,0,0,0-.93-1.52,4.28,4.28,0,0,0-1.46-1,5.24,5.24,0,0,0-3.8,0,4.27,4.27,0,0,0-1.46,1,4.38,4.38,0,0,0-.93,1.52A5.49,5.49,0,0,0,414.8,293.52Z" transform="translate(-162.83 -162.91)"/>
    <path d="M429.66,286.09h4.45l6.32,10.33h0V286.09h3.28V301h-4.28L433,290.37h0V301h-3.28Z" transform="translate(-162.83 -162.91)"/>
    <path d="M457.89,286.09h2.71L467.06,301h-3.7l-1.28-3.15h-5.78L455.07,301h-3.61Zm1.26,4.33L457.34,295H461Z" transform="translate(-162.83 -162.91)"/>
    <path d="M468.56,286.09h5.75a10.16,10.16,0,0,1,2.15.22,5.11,5.11,0,0,1,1.78.73,3.67,3.67,0,0,1,1.22,1.39,4.7,4.7,0,0,1,.45,2.17,4.37,4.37,0,0,1-.82,2.68,3.69,3.69,0,0,1-2.39,1.4l3.78,6.28h-3.93L473.45,295h-1.62V301h-3.28Zm3.28,6.15h1.93l.93,0a2.93,2.93,0,0,0,.89-.19,1.55,1.55,0,0,0,.66-.49,1.5,1.5,0,0,0,.26-.94,1.57,1.57,0,0,0-.23-.9,1.55,1.55,0,0,0-.59-.51,2.62,2.62,0,0,0-.82-.24,6.69,6.69,0,0,0-.9-.06h-2.14Z" transform="translate(-162.83 -162.91)"/>
    <path d="M482.29,286.09h10.1v3h-6.83v2.77H492v3h-6.45v3h7.2v3H482.29Z" transform="translate(-162.83 -162.91)"/>
    <path d="M240.74,315.64h17.54a31,31,0,0,1,6.56.67,15.59,15.59,0,0,1,5.44,2.24,11.18,11.18,0,0,1,3.71,4.22,14.31,14.31,0,0,1,1.38,6.62,13.3,13.3,0,0,1-2.5,8.16,11.23,11.23,0,0,1-7.3,4.26L277.09,361h-12l-9.47-18.11h-4.93V361h-10Zm10,18.75h5.89q1.34,0,2.85-.1a9,9,0,0,0,2.72-.58,4.71,4.71,0,0,0,2-1.5,4.58,4.58,0,0,0,.8-2.88,4.79,4.79,0,0,0-.7-2.75A4.71,4.71,0,0,0,262.5,325a8,8,0,0,0-2.5-.74,20.37,20.37,0,0,0-2.75-.19h-6.53Z" transform="translate(-162.83 -162.91)"/>
    <path d="M282.6,315.64h30.78v9.22h-20.8v8.45h19.65v9.22H292.58v9.22h22V361H282.6Z" transform="translate(-162.83 -162.91)"/>
    <path d="M360.74,343.48a21.87,21.87,0,0,1-1.22,7.42,16.34,16.34,0,0,1-3.62,5.89,16.56,16.56,0,0,1-6,3.9,25.1,25.1,0,0,1-16.58,0,16.55,16.55,0,0,1-6-3.9,16.32,16.32,0,0,1-3.62-5.89,21.85,21.85,0,0,1-1.22-7.42V315.64h10V343.1a11,11,0,0,0,.67,3.9,9.3,9.3,0,0,0,1.89,3.1,8.56,8.56,0,0,0,2.91,2,9.14,9.14,0,0,0,3.68.74,8.92,8.92,0,0,0,3.65-.74,8.65,8.65,0,0,0,2.88-2,9.33,9.33,0,0,0,1.89-3.1,11,11,0,0,0,.67-3.9V315.64h10Z" transform="translate(-162.83 -162.91)"/>
    <path d="M392.35,326.71a7.12,7.12,0,0,0-3.3-2.27,11.84,11.84,0,0,0-3.94-.74,10.35,10.35,0,0,0-2.24.26,8.6,8.6,0,0,0-2.18.8A4.73,4.73,0,0,0,379,326.2a4,4,0,0,0,.9,5.31,14.53,14.53,0,0,0,3.87,1.86q2.34.77,5,1.54a20.72,20.72,0,0,1,5,2.18,11.9,11.9,0,0,1,3.87,3.78,11.51,11.51,0,0,1,1.54,6.34,14.57,14.57,0,0,1-1.41,6.59,13.37,13.37,0,0,1-3.81,4.67,16.18,16.18,0,0,1-5.57,2.75,25.54,25.54,0,0,1-14.88-.45,20.52,20.52,0,0,1-7-4.35l7.1-7.81a10.35,10.35,0,0,0,3.87,3.17,10.88,10.88,0,0,0,7.3.83,8,8,0,0,0,2.24-.86,4.84,4.84,0,0,0,1.6-1.47,3.67,3.67,0,0,0,.61-2.11,3.83,3.83,0,0,0-1.57-3.23,14.49,14.49,0,0,0-3.94-2q-2.37-.83-5.12-1.66a23,23,0,0,1-5.12-2.24,12.32,12.32,0,0,1-3.94-3.71,10.62,10.62,0,0,1-1.57-6.08,13.61,13.61,0,0,1,1.44-6.4,13.9,13.9,0,0,1,3.84-4.61,16.71,16.71,0,0,1,5.54-2.78,22.69,22.69,0,0,1,6.46-.93,25.42,25.42,0,0,1,7.42,1.09,17.15,17.15,0,0,1,6.46,3.65Z" transform="translate(-162.83 -162.91)"/>
    <path d="M407.07,315.64h30.78v9.22h-20.8v8.45h19.65v9.22H417.06v9.22h22V361H407.07Z" transform="translate(-162.83 -162.91)"/>
    <path d="M447,315.64h15a42.8,42.8,0,0,1,10.34,1.22,23.66,23.66,0,0,1,8.54,3.94,19.29,19.29,0,0,1,5.79,7.07,23.73,23.73,0,0,1,2.14,10.56,21.55,21.55,0,0,1-2.08,9.7,20.85,20.85,0,0,1-5.6,7,24.74,24.74,0,0,1-8.13,4.32,31.55,31.55,0,0,1-9.66,1.47H447Zm10,36.1h5.18a27.88,27.88,0,0,0,6.43-.7,13.75,13.75,0,0,0,5.15-2.34,11.22,11.22,0,0,0,3.42-4.29,15.21,15.21,0,0,0,1.25-6.5,12.67,12.67,0,0,0-1.25-5.79,11.59,11.59,0,0,0-3.36-4.06,14.73,14.73,0,0,0-5-2.4,22,22,0,0,0-6-.8H457Z" transform="translate(-162.83 -162.91)"/>
    <path d="M494.56,355.45a6,6,0,0,1,.45-2.3,5.66,5.66,0,0,1,3.14-3.14,6.15,6.15,0,0,1,4.61,0,5.66,5.66,0,0,1,3.14,3.14,6.15,6.15,0,0,1,0,4.61,5.66,5.66,0,0,1-3.14,3.14,6.15,6.15,0,0,1-4.61,0,5.66,5.66,0,0,1-3.14-3.14A6,6,0,0,1,494.56,355.45Z" transform="translate(-162.83 -162.91)"/>
    <path d="M240.74,375.64h17.54a31,31,0,0,1,6.56.67,15.59,15.59,0,0,1,5.44,2.24,11.18,11.18,0,0,1,3.71,4.22,14.31,14.31,0,0,1,1.38,6.62,13.3,13.3,0,0,1-2.5,8.16,11.24,11.24,0,0,1-7.3,4.26L277.09,421h-12l-9.47-18.11h-4.93V421h-10Zm10,18.75h5.89q1.34,0,2.85-.1a9,9,0,0,0,2.72-.58,4.72,4.72,0,0,0,2-1.5,4.58,4.58,0,0,0,.8-2.88,4.79,4.79,0,0,0-.7-2.75A4.72,4.72,0,0,0,262.5,385a8,8,0,0,0-2.5-.74,20.37,20.37,0,0,0-2.75-.19h-6.53Z" transform="translate(-162.83 -162.91)"/>
    <path d="M282.6,375.64h30.78v9.22h-20.8v8.45h19.65v9.21H292.58v9.22h22V421H282.6Z" transform="translate(-162.83 -162.91)"/>
    <path d="M322.53,375.64h15.1l10.43,29.57h.13l10.5-29.57h15V421h-10V386.2h-.13L351.72,421H344.1L332.64,386.2h-.13V421h-10Z" transform="translate(-162.83 -162.91)"/>
    <path d="M397.86,375.64h8.26L425.83,421H414.56l-3.9-9.6h-17.6l-3.78,9.6h-11Zm3.84,13.18-5.5,14.08h11.07Z" transform="translate(-162.83 -162.91)"/>
    <path d="M430.37,375.64h15a42.8,42.8,0,0,1,10.34,1.22,23.66,23.66,0,0,1,8.54,3.94,19.28,19.28,0,0,1,5.79,7.07,23.72,23.72,0,0,1,2.14,10.56,21.56,21.56,0,0,1-2.08,9.7,20.86,20.86,0,0,1-5.6,7,24.74,24.74,0,0,1-8.13,4.32,31.57,31.57,0,0,1-9.66,1.47H430.37Zm10,36.1h5.18A27.88,27.88,0,0,0,452,411a13.76,13.76,0,0,0,5.15-2.34,11.22,11.22,0,0,0,3.42-4.29,15.2,15.2,0,0,0,1.25-6.5,12.67,12.67,0,0,0-1.25-5.79,11.58,11.58,0,0,0-3.36-4.06,14.71,14.71,0,0,0-5-2.4,22,22,0,0,0-6-.8h-5.89Z" transform="translate(-162.83 -162.91)"/>
    <path d="M479.33,375.64h30.78v9.22h-20.8v8.45H509v9.21H489.31v9.22h22V421H479.33Z" transform="translate(-162.83 -162.91)"/>
    <path d="M518.24,415.45a6,6,0,0,1,.45-2.3,5.66,5.66,0,0,1,3.14-3.14,6.16,6.16,0,0,1,4.61,0,5.66,5.66,0,0,1,3.14,3.14,6.14,6.14,0,0,1,0,4.61,5.65,5.65,0,0,1-3.14,3.14,6.15,6.15,0,0,1-4.61,0,5.65,5.65,0,0,1-3.14-3.14A6,6,0,0,1,518.24,415.45Z" transform="translate(-162.83 -162.91)"/>
    <path d="M240.74,435.64h17.54a30.93,30.93,0,0,1,6.56.67,15.57,15.57,0,0,1,5.44,2.24,11.18,11.18,0,0,1,3.71,4.22,14.31,14.31,0,0,1,1.38,6.62,13.3,13.3,0,0,1-2.5,8.16,11.24,11.24,0,0,1-7.3,4.26L277.09,481h-12l-9.47-18.11h-4.93V481h-10Zm10,18.75h5.89q1.34,0,2.85-.1a8.9,8.9,0,0,0,2.72-.58,4.7,4.7,0,0,0,2-1.5,4.58,4.58,0,0,0,.8-2.88,4.79,4.79,0,0,0-.7-2.75A4.71,4.71,0,0,0,262.5,445a8,8,0,0,0-2.5-.74,20.37,20.37,0,0,0-2.75-.19h-6.53Z" transform="translate(-162.83 -162.91)"/>
    <path d="M282.6,435.64h30.78v9.22h-20.8v8.45h19.65v9.22H292.58v9.22h22V481H282.6Z" transform="translate(-162.83 -162.91)"/>
    <path d="M322.53,435.64h16.9a42.87,42.87,0,0,1,5.92.42,16.2,16.2,0,0,1,5.34,1.66,10.24,10.24,0,0,1,3.84,3.49,10.7,10.7,0,0,1,1.47,6,9.51,9.51,0,0,1-2.14,6.37,11.8,11.8,0,0,1-5.66,3.62v.13a13,13,0,0,1,4.06,1.25,10.85,10.85,0,0,1,3.14,2.37,10.11,10.11,0,0,1,2,3.36,11.81,11.81,0,0,1,.7,4.1,10.89,10.89,0,0,1-1.54,6,12.08,12.08,0,0,1-4,3.87,17.39,17.39,0,0,1-5.47,2.11,29.29,29.29,0,0,1-6,.64H322.53Zm10,18.11h7.23a10.16,10.16,0,0,0,2.27-.26,6.28,6.28,0,0,0,2-.83,4.33,4.33,0,0,0,1.44-1.54,4.6,4.6,0,0,0,.54-2.3,4.18,4.18,0,0,0-.61-2.34,4.25,4.25,0,0,0-1.57-1.44,7.49,7.49,0,0,0-2.18-.74,13.06,13.06,0,0,0-2.37-.22h-6.78Zm0,18.75h9a11,11,0,0,0,2.34-.26,6.17,6.17,0,0,0,2.14-.9,5.11,5.11,0,0,0,1.57-1.66,4.81,4.81,0,0,0,.61-2.5,4,4,0,0,0-.8-2.59,5.1,5.1,0,0,0-2-1.5,10.36,10.36,0,0,0-2.62-.7,19.36,19.36,0,0,0-2.62-.19h-7.55Z" transform="translate(-162.83 -162.91)"/>
    <path d="M361.57,458.3a25.59,25.59,0,0,1,1.82-9.86,21.62,21.62,0,0,1,5.09-7.52,22.43,22.43,0,0,1,7.74-4.77,29.64,29.64,0,0,1,19.58,0,22.43,22.43,0,0,1,7.74,4.77,21.62,21.62,0,0,1,5.09,7.52,27.54,27.54,0,0,1,0,19.71,21.61,21.61,0,0,1-5.09,7.52,22.4,22.4,0,0,1-7.74,4.77,29.64,29.64,0,0,1-19.58,0,22.4,22.4,0,0,1-7.74-4.77,21.61,21.61,0,0,1-5.09-7.52A25.6,25.6,0,0,1,361.57,458.3Zm10.37,0a16.6,16.6,0,0,0,1,5.86,13.39,13.39,0,0,0,2.85,4.61,13,13,0,0,0,4.45,3,16,16,0,0,0,11.58,0,13,13,0,0,0,4.45-3,13.43,13.43,0,0,0,2.85-4.61,17.68,17.68,0,0,0,0-11.68,13.38,13.38,0,0,0-2.85-4.64,13,13,0,0,0-4.45-3,16,16,0,0,0-11.58,0,13,13,0,0,0-4.45,3,13.34,13.34,0,0,0-2.85,4.64A16.68,16.68,0,0,0,371.94,458.3Z" transform="translate(-162.83 -162.91)"/>
    <path d="M417.25,435.64h17.54a30.93,30.93,0,0,1,6.56.67,15.56,15.56,0,0,1,5.44,2.24,11.18,11.18,0,0,1,3.71,4.22,14.31,14.31,0,0,1,1.38,6.62,13.3,13.3,0,0,1-2.5,8.16,11.24,11.24,0,0,1-7.3,4.26L453.6,481h-12l-9.47-18.11h-4.93V481h-10Zm10,18.75h5.89q1.34,0,2.85-.1a8.9,8.9,0,0,0,2.72-.58,4.7,4.7,0,0,0,2-1.5,4.58,4.58,0,0,0,.8-2.88,4.79,4.79,0,0,0-.7-2.75A4.71,4.71,0,0,0,439,445a8,8,0,0,0-2.5-.74,20.39,20.39,0,0,0-2.75-.19h-6.53Z" transform="translate(-162.83 -162.91)"/>
    <path d="M458.72,435.64h13.57l19.26,31.49h.13V435.64h10V481H488.61L468.83,448.7h-.13V481h-10Z" transform="translate(-162.83 -162.91)"/>
    <path d="M509.86,475.45a6,6,0,0,1,.45-2.3,5.66,5.66,0,0,1,3.14-3.14,6.16,6.16,0,0,1,4.61,0,5.66,5.66,0,0,1,3.14,3.14,6.14,6.14,0,0,1,0,4.61,5.65,5.65,0,0,1-3.14,3.14,6.15,6.15,0,0,1-4.61,0,5.65,5.65,0,0,1-3.14-3.14A6,6,0,0,1,509.86,475.45Z" transform="translate(-162.83 -162.91)"/>
  </g>
</svg>
